<svg xmlns="http://www.w3.org/2000/svg" viewBox="0 0 129.53 129.53"><defs><style>.cls-1{fill:#b9c4e1;}.cls-2{fill:#fff;}</style></defs><g id="Layer_2" data-name="Layer 2"><g id="OBJECTS"><circle class="cls-1" cx="64.76" cy="64.76" r="64.76" transform="translate(-26.83 64.76) rotate(-45)"/><ellipse class="cls-2" cx="64.76" cy="54.16" rx="25.19" ry="32.57"/><path class="cls-2" d="M64.76,91.75C43.49,91.75,25,97.94,15.7,107a64.72,64.72,0,0,0,98.12,0C104.5,97.94,86,91.75,64.76,91.75Z"/><rect class="cls-2" x="53.39" y="64.76" width="22.75" height="41.13" rx="9.62"/><path class="cls-2" d="M86.66,56.49c-.59,4.43.79,8.27,3.08,8.57s4.63-3,5.22-7.47-.79-8.27-3.08-8.57S87.25,52.06,86.66,56.49Z"/><path class="cls-2" d="M42.87,56.49c.59,4.43-.79,8.27-3.08,8.57s-4.63-3-5.22-7.47.79-8.27,3.08-8.57S42.28,52.06,42.87,56.49Z"/><rect class="cls-2" x="50.53" y="14.47" width="28.47" height="34.06" rx="12"/><path class="cls-2" d="M70.77,65.58s15.16,22,40.84,4.47c0,0-2.61,9.71-9.68,12.49a9.18,9.18,0,0,0,9.68-1.7s-1,7.22-5.91,8.33c0,0,2.65,1.54,4.88,0,0,0-3.78,9.91-18.92,10.75C91.66,99.92,62.37,98.66,70.77,65.58Z"/></g></g></svg>