<svg xmlns="http://www.w3.org/2000/svg" viewBox="0 0 129.53 129.53"><defs><style>.cls-1{fill:#b9c4e1;}.cls-2{fill:#fff;}</style></defs><g id="Layer_2" data-name="Layer 2"><g id="OBJECTS"><circle class="cls-1" cx="64.76" cy="64.76" r="64.76"/><ellipse class="cls-2" cx="64.76" cy="54.16" rx="25.19" ry="32.57"/><path class="cls-2" d="M64.76,91.38c-23.2,0-42.72,6.9-48.49,16.28a64.7,64.7,0,0,0,97,0C107.48,98.28,88,91.38,64.76,91.38Z"/><path class="cls-2" d="M63,64.76h3.5a9.62,9.62,0,0,1,9.62,9.62V96.27a9.63,9.63,0,0,1-9.62,9.63H63a9.62,9.62,0,0,1-9.62-9.62V74.39A9.62,9.62,0,0,1,63,64.76Z"/><ellipse class="cls-2" cx="39.33" cy="57.97" rx="4.19" ry="8.1" transform="translate(-10.79 9.02) rotate(-11.52)"/><path class="cls-2" d="M86.09,57.13c-.89,4.38.22,8.31,2.49,8.77s4.82-2.71,5.72-7.09S94.08,50.5,91.81,50,87,52.75,86.09,57.13Z"/><path class="cls-2" d="M96.22,66.89c-.57-8.41-.14-17-2.71-25A35.41,35.41,0,0,0,76,21.57c-10.15-4.74-19.7-1.2-21.88-.27A35.43,35.43,0,0,0,36,41.84c-2.57,8-2.14,16.64-2.71,25S30.83,84.2,24.78,90.06a4.14,4.14,0,0,0,5-1.11c0,.79,0,1.58.05,2.37A3.18,3.18,0,0,0,33.41,89,2.84,2.84,0,0,0,39,88.7c-.18,1.32,1.54,2.23,2.81,1.81a6,6,0,0,0,2.8-2.73,2.61,2.61,0,0,0,3.91,2.07c-.18,1,1,1.69,2,1.63a23.31,23.31,0,0,1,2.95-.43c1.93.15,3.67,2.3,5.43,1.51.77-.34,1.48-1.23,2.26-.92.47.2.67.75,1,1.14a2.23,2.23,0,0,0,2.57.5,2.23,2.23,0,0,0,2.57-.5c.33-.39.52-.94,1-1.14.79-.31,1.49.58,2.26.92,1.77.79,3.5-1.36,5.43-1.51a22.8,22.8,0,0,1,2.95.43c1,.06,2.2-.65,2-1.63a2.61,2.61,0,0,0,3.91-2.07,6,6,0,0,0,2.81,2.73c1.26.42,3-.49,2.81-1.81a2.84,2.84,0,0,0,5.61.33,3.17,3.17,0,0,0,3.59,2.29c0-.79,0-1.58,0-2.37a4.14,4.14,0,0,0,5,1.11C98.7,84.2,96.79,75.29,96.22,66.89Z"/></g></g></svg>