<svg xmlns="http://www.w3.org/2000/svg" viewBox="0 0 129.53 129.53"><defs><style>.cls-1{fill:#b9c4e1;}.cls-2{fill:#fff;}</style></defs><g id="Layer_2" data-name="Layer 2"><g id="OBJECTS"><circle class="cls-1" cx="64.76" cy="64.76" r="64.76" transform="translate(-13.65 112.1) rotate(-76.12)"/><ellipse class="cls-2" cx="64.76" cy="52.02" rx="25.19" ry="33.78"/><path class="cls-2" d="M64.76,89.14c-23.63,0-43.95,5.23-53.06,12.74a64.74,64.74,0,0,0,106.12,0C108.72,94.37,88.39,89.14,64.76,89.14Z"/><rect class="cls-2" x="53.39" y="64.76" width="22.75" height="41.13" rx="9.62"/><path class="cls-2" d="M86.68,55.19c.13,4.62,2.17,8.31,4.56,8.24s4.22-3.86,4.09-8.48-2.17-8.3-4.56-8.24S86.55,50.58,86.68,55.19Z"/><path class="cls-2" d="M42.84,55.19c-.12,4.62-2.16,8.31-4.55,8.24S34.07,59.57,34.2,55s2.16-8.3,4.55-8.24S43,50.58,42.84,55.19Z"/><rect class="cls-2" x="58.44" y="8.08" width="12.65" height="33.5" rx="5.67"/><path class="cls-2" d="M63,10.08a3.08,3.08,0,0,1,2.85-1.93,6.24,6.24,0,0,1,3.44,1.1c2.47,1.52,4.37,3.8,6.48,5.8a27.74,27.74,0,0,0,11.32,6.67,19.21,19.21,0,0,0,13-.75,28.83,28.83,0,0,1-29.86,1.67c-3.89-2.14-7.54-5.83-7.38-10.27"/></g></g></svg>