<svg xmlns="http://www.w3.org/2000/svg" viewBox="0 0 129.53 129.53"><defs><style>.cls-1{fill:#b9c4e1;}.cls-2{fill:#fff;}</style></defs><g id="Layer_2" data-name="Layer 2"><g id="OBJECTS"><circle class="cls-1" cx="64.76" cy="64.76" r="64.76"/><ellipse class="cls-2" cx="64.76" cy="54.16" rx="25.19" ry="32.57"/><path class="cls-2" d="M64.76,89.14c-20.27,0-38.12,7.32-48.58,18.43a64.71,64.71,0,0,0,97.16,0C102.88,96.46,85,89.14,64.76,89.14Z"/><rect class="cls-2" x="53.39" y="64.76" width="22.75" height="41.13" rx="9.62"/><path class="cls-2" d="M43.05,55.67c1.47,4.22.88,8.26-1.3,9s-5.15-2-6.61-6.28-.89-8.26,1.3-9S41.58,51.44,43.05,55.67Z"/><path class="cls-2" d="M86.48,55.67c-1.47,4.22-.89,8.26,1.3,9s5.14-2,6.61-6.28.88-8.26-1.3-9S87.94,51.44,86.48,55.67Z"/><path class="cls-2" d="M95.67,58.48c-.55-8-.28-16.29-2.87-23.93A31,31,0,0,0,74.71,15.48C66.22,12.33,56.09,13.63,49,19.26c-2.48,2-4.72,4.81-4.47,8-4.3-1.46-9.11,1.6-11.12,5.68s-1.92,8.84-1.63,13.38c.84,13.31,2.87,26.95-.73,39.77l33.12,1c3.54.11,7.07.21,10.61.06,9-.39,18.36-2.42,26.85.64A114.07,114.07,0,0,1,95.67,58.48Z"/></g></g></svg>