<svg xmlns="http://www.w3.org/2000/svg" viewBox="0 0 129.53 129.53"><defs><style>.cls-1{fill:#b9c4e1;}.cls-2{fill:#fff;}</style></defs><g id="Layer_2" data-name="Layer 2"><g id="OBJECTS"><circle class="cls-1" cx="64.76" cy="64.76" r="64.76"/><ellipse class="cls-2" cx="64.76" cy="57.18" rx="25.19" ry="35.59"/><path class="cls-2" d="M64.76,89.14c-21.07,0-39.62,6.44-50.45,16.21a64.73,64.73,0,0,0,100.91,0C104.39,95.58,85.84,89.14,64.76,89.14Z"/><rect class="cls-2" x="49.3" y="64.76" width="30.92" height="41.13" rx="9.62"/><path class="cls-2" d="M43.05,55.67c1.47,4.22.88,8.26-1.3,9s-5.15-2-6.61-6.28-.89-8.26,1.3-9S41.58,51.44,43.05,55.67Z"/><path class="cls-2" d="M86.48,55.67c-1.47,4.22-.89,8.26,1.3,9s5.14-2,6.61-6.28.88-8.26-1.3-9S87.94,51.44,86.48,55.67Z"/><path class="cls-2" d="M46.23,19.91H83.3a6.65,6.65,0,0,1,6.65,6.65v27.6a0,0,0,0,1,0,0H39.59a0,0,0,0,1,0,0V26.56A6.65,6.65,0,0,1,46.23,19.91Z"/><path class="cls-2" d="M60.46,85.33H42.59a4.57,4.57,0,0,1,.65,5.33l-2.66,4.81,19.88,8.93Z"/><path class="cls-2" d="M69.07,85.33H86.93a4.58,4.58,0,0,0-.65,5.33L89,95.47,69.07,104.4Z"/></g></g></svg>