<svg xmlns="http://www.w3.org/2000/svg" viewBox="0 0 129.53 129.53"><defs><style>.cls-1{fill:#b9c4e1;}.cls-2{fill:#fff;}</style></defs><g id="Layer_2" data-name="Layer 2"><g id="OBJECTS"><circle class="cls-1" cx="64.76" cy="64.76" r="64.76"/><ellipse class="cls-2" cx="64.76" cy="55.37" rx="25.19" ry="33.78"/><path class="cls-2" d="M64.76,94.73c-21.62,0-40.08,5.83-47.49,14a64.72,64.72,0,0,0,95,0C104.85,100.56,86.39,94.73,64.76,94.73Z"/><rect class="cls-2" x="53.39" y="64.76" width="22.75" height="41.13" rx="9.62"/><path class="cls-2" d="M86.07,58.55c-.77,4.41.46,8.3,2.73,8.7S93.55,64.4,94.32,60s-.46-8.29-2.73-8.69S86.84,54.15,86.07,58.55Z"/><path class="cls-2" d="M43.46,58.55c.76,4.41-.46,8.3-2.74,8.7S36,64.4,35.21,60s.45-8.29,2.73-8.69S42.69,54.15,43.46,58.55Z"/><path class="cls-2" d="M44.46,58.85a6.16,6.16,0,0,1-9.16-2.74,3.45,3.45,0,1,1-4.53-5,3.62,3.62,0,0,1,.69-7C30.05,42.68,28.71,41,28.62,39s1.68-4.17,3.65-3.73c-1.16-1-.73-3,.44-4A7.88,7.88,0,0,1,37,29.92c-1.34,0-2.15-1.74-1.67-3a4.26,4.26,0,0,1,3.1-2.31c3.34-.81,7.44.32,9.86-2.11A9.68,9.68,0,0,1,49.78,21c1-.61,2.26-.38,3.41-.55s2.4-1.25,1.9-2.3a9.43,9.43,0,0,0,4.94.27,4.34,4.34,0,0,1,1.85-.18,3,3,0,0,1,1.33.89c2.64,2.7,3.51,6.62,4.1,10.35a125.62,125.62,0,0,1,1.48,16.09c.07,2.82,0,5.78-1.33,8.25-1.59,2.93-4.75,4.69-7.94,5.67a25.91,25.91,0,0,1-15.08,0"/><path class="cls-2" d="M85.06,58.85a6.17,6.17,0,0,0,9.17-2.74,3.45,3.45,0,1,0,4.53-5,3.62,3.62,0,0,0-.69-7c1.41-1.44,2.75-3.16,2.84-5.17s-1.69-4.17-3.65-3.73c1.15-1,.73-3-.45-4a7.85,7.85,0,0,0-4.29-1.33c1.34,0,2.15-1.74,1.67-3a4.24,4.24,0,0,0-3.09-2.31c-3.34-.81-7.44.32-9.87-2.11A9.26,9.26,0,0,0,79.74,21c-1-.61-2.25-.38-3.4-.55s-2.41-1.25-1.91-2.3a9.42,9.42,0,0,1-4.94.27,4.29,4.29,0,0,0-1.84-.18,2.94,2.94,0,0,0-1.34.89c-2.64,2.7-3.51,6.62-4.09,10.35a123.84,123.84,0,0,0-1.48,16.09c-.08,2.82,0,5.78,1.32,8.25,1.6,2.93,4.76,4.69,8,5.67a25.91,25.91,0,0,0,15.08,0"/></g></g></svg>